<?xml version="1.0" encoding="utf-8"?>
<!-- Generator: Adobe Illustrator 15.0.0, SVG Export Plug-In . SVG Version: 6.00 Build 0)  -->
<!DOCTYPE svg PUBLIC "-//W3C//DTD SVG 1.1//EN" "http://www.w3.org/Graphics/SVG/1.1/DTD/svg11.dtd">
<svg version="1.1" id="Layer_1" xmlns="http://www.w3.org/2000/svg" xmlns:xlink="http://www.w3.org/1999/xlink" x="0px" y="0px"
	 width="18px" height="15px" viewBox="0 0 18 15" enable-background="new 0 0 18 15" xml:space="preserve">
<g>
	<path fill-rule="evenodd" clip-rule="evenodd" fill="#91B12C" d="M16.77,10.5L18,4.01c0-0.43-0.35-0.77-0.79-0.77L3.65,2.19
		L1.29,0.16L1.28,0.18C1.14,0.07,0.97,0,0.78,0C0.35,0,0,0.35,0,0.78C0,1,0.1,1.2,0.25,1.35l2.39,2.03l0.95,7.12
		c0,0.42,0.35,0.78,0.78,0.78h11.61C16.42,11.28,16.77,10.92,16.77,10.5z M13.24,9.87V7.75h2.43l-0.4,2.12H13.24z M8.9,9.87V7.75
		h2.88v2.12H8.9z M5.12,9.87L4.83,7.75h2.6v2.12H5.12z M13.24,6.29V4.32l3.05,0.24l-0.34,1.73H13.24z M8.9,6.29V3.98l2.88,0.23v2.08
		H8.9z M4.63,6.29L4.27,3.63l3.16,0.24v2.42H4.63z"/>
	<path fill-rule="evenodd" clip-rule="evenodd" fill="#91B12C" d="M12,13c0-1.1,0.9-2,2-2s2,0.9,2,2s-0.9,2-2,2S12,14.1,12,13z"/>
	<path fill-rule="evenodd" clip-rule="evenodd" fill="#91B12C" d="M4,13c0-1.1,0.9-2,2-2s2,0.9,2,2s-0.9,2-2,2S4,14.1,4,13z"/>
</g>
</svg>
