<?xml version="1.0" encoding="utf-8"?>
<!-- Generator: Adobe Illustrator 17.1.0, SVG Export Plug-In . SVG Version: 6.00 Build 0)  -->
<!DOCTYPE svg PUBLIC "-//W3C//DTD SVG 1.1//EN" "http://www.w3.org/Graphics/SVG/1.1/DTD/svg11.dtd">
<svg version="1.1" id="Layer_1" xmlns="http://www.w3.org/2000/svg" xmlns:xlink="http://www.w3.org/1999/xlink" x="0px" y="0px"
	 width="16" height="16" viewBox="0 0 16 16" enable-background="new 0 0 16 16" xml:space="preserve">
<g id="lab_1_">
	<path fill="#333333" d="M10.3,1.9c-0.2-0.2-0.5-0.4-0.9-0.4c-0.3,0-0.6,0.1-0.9,0.4L7.9,2.6C7.6,2.8,7.5,3.1,7.5,3.5
		c0,0.2,0.1,0.5,0.2,0.7L0.9,6.8C0.4,7,0.1,7.4,0,7.9c-0.1,0.5,0.1,1,0.4,1.3l6.4,6.3c0.3,0.3,0.6,0.4,1,0.4c0,0,0,0,0,0
		c0.1,0,0.2,0,0.3,0c0.5-0.1,0.9-0.4,1.1-0.9l2.7-6.7c0.2,0.1,0.4,0.2,0.7,0.2c0.3,0,0.6-0.1,0.9-0.4l0.7-0.7
		c0.2-0.2,0.4-0.6,0.4-0.9S14.4,6,14.2,5.7L10.3,1.9z M8.3,14.7C8.3,14.8,8.1,15,8,15c0,0-0.1,0-0.1,0c-0.1,0-0.2-0.1-0.3-0.1
		L1.1,8.6C1,8.4,1,8.3,1,8.1C1,8,1.1,7.8,1.3,7.7l3.1-1.2c2.1,0.7,4.2,0,6.3,2.3L8.3,14.7z M13.5,6.8l-0.7,0.7
		c-0.1,0.1-0.3,0.1-0.4,0l-0.9-0.9l-0.7,1.8l0.1-0.2c-1.5-1.5-3-1.7-4.4-1.9C6,6.3,5.6,6.3,5.2,6.2l4.2-1.7L8.6,3.6
		c-0.1-0.1-0.1-0.3,0-0.4l0.7-0.7c0.1-0.1,0.3-0.1,0.4,0l3.9,3.9C13.6,6.5,13.6,6.7,13.5,6.8z"/>
	<path fill="#00D401" d="M8.3,10.5c0.7,0,1.2-0.6,1.2-1.2S8.9,8,8.3,8S7,8.6,7,9.2S7.6,10.5,8.3,10.5z M8.3,8.5C8.7,8.5,9,8.8,9,9.2
		S8.7,10,8.3,10c-0.4,0-0.7-0.3-0.7-0.8S7.8,8.5,8.3,8.5z"/>
	<path fill="#00D401" d="M14.8,0c-0.7,0-1.2,0.6-1.2,1.2s0.6,1.2,1.2,1.2c0.7,0,1.2-0.6,1.2-1.2S15.4,0,14.8,0z M14.8,2
		C14.3,2,14,1.7,14,1.2s0.3-0.8,0.7-0.8c0.4,0,0.7,0.3,0.7,0.8S15.2,2,14.8,2z"/>
	<path fill="#00D401" d="M4,8.5c0,0.6,0.4,1,1,1s1-0.4,1-1s-0.4-1-1-1S4,7.9,4,8.5z M5,8c0.3,0,0.5,0.2,0.5,0.5S5.3,9,5,9
		C4.7,9,4.5,8.8,4.5,8.5S4.7,8,5,8z"/>
	<circle fill="#00D401" cx="6.5" cy="11.5" r="0.5"/>
	<circle fill="#00D401" cx="14.5" cy="4" r="0.5"/>
</g>
</svg>
