<svg baseProfile="tiny" xmlns="http://www.w3.org/2000/svg" width="120" height="20" preserveAspectRatio="xMaxYMax meet" viewBox="0 0 120 20" ><g fill-rule="evenodd" clip-rule="evenodd" fill="#91B12C"><path d="M16.77 10.5l1.23-6.49c0-.43-.35-.77-.79-.77l-13.56-1.05-2.36-2.03-.01.02c-.14-.11-.31-.18-.5-.18-.43 0-.78.35-.78.78 0 .22.1.42.25.57l2.39 2.03.95 7.12c0 .42.35.78.78.78h11.61c.44 0 .79-.36.79-.78zm-3.53-.63v-2.12h2.43l-.4 2.12h-2.03zm-4.34 0v-2.12h2.88v2.12h-2.88zm-3.78 0l-.29-2.12h2.6v2.12h-2.31zm8.12-3.58v-1.97l3.05.24-.34 1.73h-2.71zm-4.34 0v-2.31l2.88.23v2.08h-2.88zm-4.27 0l-.36-2.66 3.16.24v2.42h-2.8zM12 13c0-1.1.9-2 2-2s2 .9 2 2-.9 2-2 2-2-.9-2-2zM4 13c0-1.1.9-2 2-2s2 .9 2 2-.9 2-2 2-2-.9-2-2z"/></g><g transform="translate(30)"><ellipse fill-rule="evenodd" clip-rule="evenodd" fill="#868686" cx="5.54" cy="5.5" rx="5.54" ry="5.5"/><path fill-rule="evenodd" clip-rule="evenodd" fill="#fff" d="M4.619 1.391h1.843v4.81h-1.843zM8.699 7.669l-1.303 1.303-2.777-2.777 1.303-1.303z"/></g><g transform="translate(60)"><path fill-rule="evenodd" clip-rule="evenodd" fill="#D3690D" d="M0 0h15v10h-15zM9 9v5l-5-5z"/></g><g transform="translate(90)"><path fill-rule="evenodd" clip-rule="evenodd" fill="#007EBA" d="M0 0h18v2h-18z"/></g></svg>